<svg id="Capa_1" data-name="Capa 1" xmlns="http://www.w3.org/2000/svg" viewBox="0 0 766.75 307.89"><defs><style>.cls-1{fill:#2c3970;}</style></defs><path class="cls-1" d="M431.2,307c-4-1.7-5.9-5-6.2-10.9-.5-7.4,1.9-11.6,7.6-13.3,3.4-1,4.4-.9,7.7.7,3.9,2,5.7,4.4,3.1,4.4a4.37,4.37,0,0,1-2.7-1.5c-2-2.4-7.7-1.9-10.5,1-3.3,3.2-3.5,11-.4,14.9,2.4,3,8.2,3.6,11.5,1.1,2.3-1.7,3.4-1.9,3.4-.5,0,1.6-6.2,5-9,4.9A15.66,15.66,0,0,1,431.2,307Z" transform="translate(0.05 -0.01)"/><path class="cls-1" d="M455.7,306.1c-5.8-2.9-7.7-13.5-3.5-19.9,2.2-3.3,8.3-4.8,12.9-3.3,9.3,3.1,10.4,18.9,1.6,23.5C462.9,308.4,460,308.3,455.7,306.1Zm11.9-3.8c1.5-1.9,2.1-4.1,2.1-7.4,0-6.5-2.8-10-8-10a10.78,10.78,0,0,0-6.1,1.9c-2.1,1.6-2.4,2.8-2.4,8.1s.3,6.5,2.4,8.1C459.2,305.9,465,305.5,467.6,302.3Z" transform="translate(0.05 -0.01)"/><path class="cls-1" d="M484.1,306.5c-5.2-2.3-7.5-11.2-4.5-18.3,2.5-6.1,12.3-8.1,16.6-3.3,2.4,2.6,1.3,3.7-1.7,1.6a10.34,10.34,0,0,0-9.8-.6c-4.5,2.4-5,14.5-.7,17.5,2.7,1.9,7.7,1.9,10.3,0,2.4-1.8,3.4-1.9,3.4-.1,0,1.5-5.8,4.6-8.7,4.6A22.24,22.24,0,0,1,484.1,306.5Z" transform="translate(0.05 -0.01)"/><path class="cls-1" d="M505.3,307.2c-.3-.3-.6-6-.6-12.5,0-9.8.3-11.8,1.5-11.8s1.5,2,1.5,11.9C507.7,305.7,507.1,309,505.3,307.2Z" transform="translate(0.05 -0.01)"/><path class="cls-1" d="M524.6,298.4l-6.4-9.8-.3,9.2c-.2,6.7-.6,9.1-1.5,8.8-1.5-.5-2.2-20.9-.9-23.4.8-1.3,2.2.2,7.3,8,3.5,5.3,6.6,9.7,6.9,9.7s.5-3.9.5-8.7.4-9,1-9.3c1.3-.6,1.9,23,.7,24.2C531.3,307.7,528.4,304.2,524.6,298.4Z" transform="translate(0.05 -0.01)"/><path class="cls-1" d="M555.1,304c-1.6-4-1.7-4.1-6.5-4.1-4.6,0-4.9.2-6.3,3.5s-3.6,4.8-3.6,2.3c.2-3,8.7-22.3,9.9-22.3,1.9,0,10.6,22.4,9.2,23.8C557.1,307.9,556.3,306.9,555.1,304Zm-2.8-7.3c-.2-.7-1-3-1.7-5s-1.5-3.8-1.9-3.8-1.2,1.7-1.9,3.8-1.6,4.3-1.8,5c-.4.8.7,1.2,3.7,1.2S552.7,297.5,552.3,296.7Z" transform="translate(0.05 -0.01)"/><path class="cls-1" d="M576.3,307.2c-.3-.3-.6-6-.6-12.5,0-9.8.3-11.8,1.5-11.8s1.5,2,1.5,11.9C578.7,305.7,578.1,309,576.3,307.2Z" transform="translate(0.05 -0.01)"/><path class="cls-1" d="M620,304.1c-1.8-4.1-1.9-4.2-6.8-4.2s-5.1.1-6.4,3.5-3.1,4.8-3.1,2.2c0-2.1,8.7-23.2,9.6-23.2,1.5,0,10.5,23.8,9.4,24.9C622,308,621.1,306.9,620,304.1Zm-3.7-8.7a44.71,44.71,0,0,0-1.7-5.2l-1.1-2.8-1.9,4c-2.6,5.7-2.4,6.5,1.7,6.5C616.6,297.9,616.9,297.7,616.3,295.4Z" transform="translate(0.05 -0.01)"/><path class="cls-1" d="M675.1,304c-1.6-4-1.7-4.1-6.5-4.1-4.6,0-4.9.2-6.3,3.5s-3.6,4.8-3.6,2.5c0-.5,2.1-6.2,4.6-12.6,3.8-9.4,4.9-11.3,5.9-10.2,2.4,2.5,9.7,23,8.6,24.1C677.1,307.9,676.3,306.9,675.1,304Zm-2.8-7.3c-.2-.7-1-3-1.7-5s-1.6-3.8-2-3.8-3.9,8.2-3.9,9.7c0,.2,1.8.3,4.1.3C671.7,297.9,672.7,297.5,672.3,296.7Z" transform="translate(0.05 -0.01)"/><path class="cls-1" d="M708.3,307.1c-.7-1.1,8.6-24.4,9.7-24.6.9-.1,9.7,20.9,9.7,23.1,0,2.5-2,1.2-3.4-2.2s-1.7-3.5-6.5-3.5-5,.1-6.1,3.5C710.5,307.1,709.2,308.5,708.3,307.1Zm13.3-10.4a23.06,23.06,0,0,0-1.9-5.3l-1.8-4-1.1,2.8c-3.4,8.3-3.5,7.7.9,7.7C720.3,297.9,721.7,297.5,721.6,296.7Z" transform="translate(0.05 -0.01)"/><path class="cls-1" d="M592.7,295.9v-11h-4c-2.2,0-4-.4-4-1s3.7-1,9-1,9,.4,9,1-1.8,1-4,1h-4v11c0,6.7-.4,11-1,11S592.7,302.6,592.7,295.9Z" transform="translate(0.05 -0.01)"/><path class="cls-1" d="M629.7,294.8c0-9.2.3-12,1.3-11.7.8.3,1.3,3.7,1.5,11.1l.3,10.7h4.9c2.8,0,5,.5,5,1s-2.8,1-6.5,1h-6.5Z" transform="translate(0.05 -0.01)"/><path class="cls-1" d="M649.7,294.9c0-9.3.3-12.1,1.3-11.7s1.2,3.5,1.2,11.7-.3,11.4-1.2,11.8S649.7,304.2,649.7,294.9Z" transform="translate(0.05 -0.01)"/><path class="cls-1" d="M684.7,295c0-6.6.4-12.2.8-12.5s3.7,3.9,7.3,9.2l6.4,9.7.3-9.2c.4-13.7,2.2-11.5,2.2,2.7,0,7.1-.4,12-1,12s-3.7-4-7-9a109.78,109.78,0,0,0-6.4-9c-.2,0-.3,1.5-.3,3.3.2,8-.4,14.7-1.3,14.7C685.1,306.9,684.7,302.3,684.7,295Z" transform="translate(0.05 -0.01)"/><path class="cls-1" d="M236.6,276.4c-5.2-2.8-5.4-4.1-5.7-43.5-.3-32.1.7-76.2,2.4-100.5l.5-8-6.6,6.8c-3.7,3.8-6.8,6.7-6.9,6.5a51.78,51.78,0,0,1-2-7.1c-.9-3.7-2.5-9-3.5-11.7l-1.8-4.8,10.6-10.4c12.7-12.5,17.7-16.6,29.9-24.6,14.4-9.5,25-12.8,35.6-11.1,12.3,2,22.8,10.9,29.4,24.6,3.2,6.7,3.7,8.9,4,16.8.5,10.6-1.2,20.3-6.4,36.2-9.3,28.7-24.8,51-41.1,58.9-5.2,2.6-6.8,2.9-16.3,3H248.2V233c-.1,26.9-.8,33.3-4.9,40.5C240.8,277.9,240,278.3,236.6,276.4Zm18.7-84c22.4-9.9,45.6-40.1,52.9-68.9,5.6-22.1,1.8-36.8-10.7-42.1-4.9-2-9.7-1.9-15.6.3-11.3,4.3-29.3,19.8-31.1,26.7-1.2,5.1-3.1,45.1-3.1,66,0,14.3.5,20.5,1.6,20.5C249.5,194.9,252.2,193.8,255.3,192.4Z" transform="translate(0.05 -0.01)"/><path class="cls-1" d="M405.9,268.8c-6-3-9.4-9-9.5-17,0-6.3,1.9-10.3,2.9-6.1.4,1.2,1,1.9,1.5,1.6s.9,1.3.9,3.5c0,5.1,1.5,9.1,3.5,9.1,2.6,0,10.7-8.3,13.1-13.5,2.9-6.2,3.1-12.8.5-15.4-1.1-1.1-4.5-2.5-7.8-3.1-22.2-4.5-32.2-24.7-22.4-45.2,8.4-17.6,27.7-32.2,44.2-33.6,7.2-.5,12.7,1.2,14.2,4.5,1.3,2.9,2.1,2-15.5,16.4-17.4,14.2-25.3,23.7-29.8,35.6-3.4,9.1-1.8,11.2,11,14.7,14.2,3.9,24.5,16.5,22.5,27.5-1.5,8.1-8.6,17.5-15.9,21C413.9,271.4,411.3,271.4,405.9,268.8Z" transform="translate(0.05 -0.01)"/><path class="cls-1" d="M463.7,263.8c-15.3-6.9-21.6-25.3-19-55.6,1.3-15.2,1-17.3-3.1-17.3-2.9,0-2.3-1.7,2.1-6.7,2.2-2.5,4.4-6.2,4.9-8.2s1.7-14.4,2.6-27.6,2.3-27.8,3-32.5,1.1-8.8.6-9.3-4.8.4-9.6,1.8c-9.2,2.6-10.4,2.4-10.5-1.6a34.22,34.22,0,0,0-.6-4.6l-.6-2.9,9.9-2.8c5.4-1.6,10.6-3.2,11.5-3.7s3.1-4.6,4.8-9.1c7.8-20.3,18.4-36.7,27.4-42.2,6-3.8,15.5-4.8,20.4-2.2,7.5,3.9,7.8,10.9,1.1,27.9-2.3,5.9-4,10.9-3.8,11.1s5.6-.8,12-2.4c15.9-3.9,29.3-5.4,40.8-4.7,12.8.8,19.6,2.9,24.3,7.7,5.5,5.5,5.1,9.8-1.3,13-5.9,3.1-7,2.7-6.7-2.2l.3-4.3-9.5-.9c-14-1.3-31.9.5-50.2,5l-15.1,3.8-5.1,11c-2.8,6.1-11.8,24.6-20,41l-14.8,29.9.5,25.6c.6,28.6,2.3,40.3,7.7,51.8,4.5,9.8,8.8,9.5,23.4-1.9,3.3-2.6,6.3-4.4,6.6-4.1s0,.8-.6,1-1,1.3-.7,2.3.1,2-.5,2-2.7,2.3-4.7,5-5.5,6-7.6,7C478.5,266.6,469.7,266.5,463.7,263.8Zm31.1-13.6c1.3-1.6,1.2-1.7-.3-.4-1.7,1.3-2.2,2.1-1.4,2.1A6.23,6.23,0,0,0,494.8,250.2Zm-24-114c9.6-20,18.1-39.4,17.6-39.9-1-1.1-11.3,2.1-13.2,4-4.1,4.1-7.8,18.5-13,49.9-.2,1.5-.2,2.7.1,2.7S466.4,145.4,470.8,136.2Zm16.5-51.9c7.8-2.7,7.6-2.4,14.5-21.9,3.8-10.7,4.9-17.5,2.9-17.5-2.2,0-8,6.5-11.3,12.7-3.5,6.7-12.7,26.9-12.7,27.8S482.1,86,487.3,84.3Z" transform="translate(0.05 -0.01)"/><path class="cls-1" d="M572,264.9c-4.5-1.8-5.5-6.2-6.4-26.5-.5-10.4-1.3-26.9-1.8-36.5-1.4-24.9,0-30.9,7.7-34.6,4.2-2,12.7-3.1,13.4-1.8.5.9-.5,17.5-2,34.2-.4,5.1-.5,9.5-.1,9.8s1.9-3.2,3.4-7.6c5.5-16.4,18.4-30,28.5-30,5.6,0,13.6,5.3,15.2,10.1.2.7,2.3,0,5.9-2,19.1-10.7,39.6,7.8,30.3,27.4-4.1,8.8-13.3,15.3-33.4,23.4-4.2,1.7-9.3,4.5-11.4,6.3-3.6,2.9-3.8,3.4-3.3,7.5.9,8.1,8,12.4,17.1,10.3,11.1-2.5,18.6-6.8,35.8-20.7,10.4-8.4,11.8-9.9,12.3-13.1,4.9-31.3,29.7-61.6,50.6-61.7,8.2,0,9.9,1.8,10.2,11l.2,7-3.2.3c-2.7.3-3.3-.1-3.8-2.1-.6-2.3-.7-2.2-5.7,2.2-15,13.7-29.8,41.8-29.8,56.8,0,2.4.4,4.3.9,4.3,1.3,0,7.4-8.6,22-31.4,14.7-22.6,23.7-34,27.2-34.2a17.75,17.75,0,0,0,3.9-.8c.9-.4,3.3,1,6.3,3.5,4.2,3.6,4.7,4.5,4.7,8.2,0,2.3-1.3,7.6-3,11.8a72.05,72.05,0,0,0-3.9,32.9c2.1,16.4,2.3,20.4.9,19.5-1-.6-1.2-.4-.7.8,1,2.6-1.4,3.6-5.3,2.3-3-.9-4.1-2.2-7.2-8.6-4.9-9.7-6.2-18.6-5.4-35,.3-6.9.8-13.8,1.2-15.5.9-4.4-10.9,12.8-20.3,29.5-12.7,22.6-12.7,22.6-18.8,24-6.7,1.5-14.7-2.5-18.1-9.1l-1.4-2.9-5.9,6.8c-11.9,13.9-20.3,20-31.1,22.8-13,3.3-26.4,0-35-8.6-14.2-14.2-12-35.5,6-58.6l4.8-6.1-4.4-5.7c-5.3-6.7-6-6.6-12.9,2.2-9.4,11.9-16,29.4-18.9,49.9-3.4,23.9-3.9,26.5-5.3,27.9C580.4,266,575.4,266.3,572,264.9Zm58.7-44.3c16.6-11,23.8-16.6,26-20.1s2.7-9.1,1-10.1c-2-1.3-35.7,30.3-39,36.5C617.3,229.6,616.5,230,630.7,220.6Z" transform="translate(0.05 -0.01)"/><path class="cls-1" d="M368,250.1c-5.6-.9-11.5-12.3-13.4-26.1-1.2-8.1-.6-27.3,1-32.9.5-1.8.6-3,.2-2.7-1.9,1.1-15.4,22.2-23.1,35.9-9.6,17.1-12,19.6-19.1,19.6-12,0-18.7-9.5-17.6-24.9,1.1-15.6,9.9-33.2,23.8-47.3,10.1-10.4,17.1-14.2,26-14.3,7.3,0,9.1,1.6,10.7,9.5,1.5,7.1.7,9-3.9,9-2.2,0-2.9-.5-2.9-2,0-1.1-.4-2-.8-2-1.3,0-15.5,15.1-18.9,20-5.1,7.6-11,19.2-13.2,26.1-2.3,7.1-3.2,17.1-1.7,17.9,1.2.6,7.1-7.7,21.7-30.1,13.9-21.6,23-33.4,26.7-34.7,5.9-2,14.3,3.3,15.7,9.9.4,1.7-.5,5.4-2.4,10.6a95.22,95.22,0,0,0-4.1,13.2c-1.4,7.3-1.2,23.3.3,30.6a41.73,41.73,0,0,1,1.1,7.3c-.1.6-.2,1.9-.3,2.8s-.5,1.2-1.1.9-.7,0-.4.8C373,249,370.7,250.6,368,250.1Z" transform="translate(0.05 -0.01)"/><path class="cls-1" d="M545.7,249c-3.2-.9-8.1-8.1-10.6-15.7-1.5-4.8-1.9-8.8-1.9-21.4,0-8.5.3-17.7.8-20.5l.7-4.9-6.6,9.4c-3.6,5.2-10.8,17-16,26.2-11.6,20.4-14.7,23.1-23.6,20.8-6.5-1.8-12.3-8.3-13.8-15.6-2.3-11.2,3.4-29.7,14.1-45.5,10.2-15.3,24.5-25.3,36-25.4,8.2,0,9.9,1.8,10.2,11l.2,7-3.1.3c-2.4.2-3.3-.2-4.1-2-1-2.2-1.2-2.1-7.5,4.2-10.7,10.8-20.8,27-25.3,40.5-2.1,6.3-3.2,18.5-1.7,18.5,1.3,0,7-8.1,22.4-31.9,12.4-19.1,22.4-32.3,26-34.2,5.3-2.9,15.8,4.8,15.8,11.4,0,1.8-1.3,7-3,11.4a74.6,74.6,0,0,0-4,33.5c2.3,17.7,2.4,19.7.5,21.8-1,1.1-2.1,2-2.4,1.9S547.1,249.4,545.7,249Z" transform="translate(0.05 -0.01)"/><path class="cls-1" d="M340.2,146.4c-4.3-1.5-7.4-4.9-7.5-8a13.35,13.35,0,0,1,2.1-5.4,39.59,39.59,0,0,0,3.4-9c1.9-7.5,6.3-38,8-56.1,1.7-16.8,1.9-53.5.4-59.9-.8-3.6-.7-4.7.7-6.2,2.2-2.4,6.1-2.4,10.1.1,5.4,3.2,6.6,6.1,5.9,13.3-.3,3.4-1,19.5-1.5,35.7-1.1,35-2.9,47.7-10.7,74.9-.6,1.9-.4,2.3.7,1.9,9.1-3.5,38.3-4.5,46.9-1.5l4.5,1.5-4.5.2-4.5.3,4,.7c3.8.7,3.7.7-2,.9-4.3.1-5.6.4-4.5,1.1s.8,1-1.5,1a26.16,26.16,0,0,0-7,1.4c-5.1,1.8-18.7,6-24.1,7.5a32.92,32.92,0,0,0-8.5,4.1C345.6,148.3,345.6,148.3,340.2,146.4Z" transform="translate(0.05 -0.01)"/><path class="cls-1" d="M422.8,117.5c-5.6-6-8.8-25.8-6.3-39.3a36.74,36.74,0,0,0,.7-5.3c-.9,0-10.3,14.3-16.4,25.1-8.5,15-10.7,17.4-16.1,17.4-4.6,0-8.6-2.7-11.5-7.6-7.8-13.2,8.1-46.6,26.7-55.8,10-5,15.9-4,17.8,3,.9,3.3.8,4.5-.5,6.5-1.9,3-4.1,3.1-4.9.2-.5-2.2-.8-2.1-5.2,2.2-5.9,5.7-15.8,20.7-18.5,27.9-3,8.2-4.4,16-3.1,17.3.8.8,4.5-4.1,13.5-17.8,12.2-18.5,19.6-28.8,22.3-31,2.1-1.7,9.5,0,11.6,2.6,2.4,3,2.3,6-.8,15.5-2.1,6.4-2.7,9.9-2.7,17.5a82.68,82.68,0,0,0,1,13.5c1.3,5.6-.1,10.5-3.1,10.5C426.1,119.9,424.1,118.8,422.8,117.5Z" transform="translate(0.05 -0.01)"/><g id="layer101"><path class="cls-1" d="M64.4,280.8a7.89,7.89,0,0,1-4.2-5c-1-3,.4-8,3.8-13.9,1.5-2.6,2.1-4,1.8-4.4a11.77,11.77,0,0,0-3.5-1.9c-21.1-9-40.5-27.4-51.1-48.5-16.8-33.7-14.7-74.4,5.7-105.6C33,76.7,59.2,59.6,87.5,55.1a134.38,134.38,0,0,1,26.9-.4,98.88,98.88,0,0,1,34.8,10.9c28.7,14.9,48.6,42.2,54.6,74.3a103.82,103.82,0,0,1-7.4,61.7c-6.1,13.6-13.2,24-23,33.6-13.2,13.1-28.6,21.3-48.8,26.2-5.5,1.3-7,1.4-7.6.1-.1-.4-.4-10.3-.5-22-.2-18.8-.1-21.6.4-24.1a23.65,23.65,0,0,1,5.4-10.4c2.9-3.3,3.1-3.9,2.3-5.3-1.7-2.7-15.5-10.3-28.3-15.8-15.1-6.4-18.8-7.8-19.5-7.4-.8.7-1,2.9-.6,7.1a29.48,29.48,0,0,0,3.3,11.6c1.4,2.7,2.6,4.1,7.6,9,5.3,5.3,6,6.2,7.5,9.3,3.1,6.3,3.1,5.7,2.9,28.5-.1,23.1,0,21.9-3.3,21.5-8.1-1.1-10.6-1-12.3.7-1.4,1.3-3.8,5.6-5.1,9.2a22.87,22.87,0,0,1-2.3,4.7C72.5,281.3,68,282.4,64.4,280.8Zm5.6-4.6a13.6,13.6,0,0,0,2-4.1c3.1-8,7-12.9,15.8-20.4,4.1-3.4,5.1-5.3,5.1-9.3a13.79,13.79,0,0,0-.2-3c-.5-.4-8.8,6.3-13.6,11.1a86.09,86.09,0,0,0-6.6,7.2c-3.9,5.2-7.8,13-7.8,15.7A3.46,3.46,0,0,0,70,276.2Zm55.3-42.6c6.2-4.5,10.2-9,12.7-14.1a23.7,23.7,0,0,0,2.5-12.3,13.42,13.42,0,0,0-1.6-7c-1.2-2.6-2.2-3.9-5-6.7-5.5-5.5-12-9.6-25.8-16.5-12.3-6.1-14.2-6.9-17.4-7.2-2.4-.2-3,0-5.3,1-3.4,1.6-3.4,2.2,0,3.3,3.6,1.2,14.5,5.9,21.7,9.4,18.9,9.3,26.5,15.8,27,23.5.4,5.8-1.6,10.4-6.7,15.8a30.09,30.09,0,0,1-4.7,4.3c-1.7,1-2.4,2.6-2.3,4.9C120.5,236.2,121.4,236.4,125.3,233.6Zm8.7-48c.5-2,.2-22.7-.3-23.3a17.56,17.56,0,0,0-3.5-1.3c-1.6-.5-3.3-1-3.7-1.1-.7-.2-.7.3-.7,6.4,0,7.8.2,7.5-4.4,7.5-4,0-4,0-3.8-8,.1-3.5.1-6.8,0-7.4-.2-1-.4-1.1-1.6-.8a17.6,17.6,0,0,0-3.4,1.2c-2.9,1.3-3.3,2.4-3.2,8.5l.1,4.7,1.3.8c.7.4,3.5,2,6.1,3.4a122.29,122.29,0,0,1,10.6,6.5c3.2,2.1,5.9,3.9,6,3.9S133.8,186.2,134,185.6Zm-29.8-28.2c35.8-16,37.2-16.6,38.3-17.8,2.3-2.5-.5-7.1-3.8-6.2-1,.2-54.4,23.9-64.9,28.7-3.8,1.7-4.9,2.9-4.8,5.1a3.72,3.72,0,0,0,4.3,3.6C74,170.8,87.9,164.7,104.2,157.4Zm-.2-13.9c17.8-7.9,33-14.7,33.8-15.1,2.8-1.4,3.5-4.5,1.6-6.4-1.4-1.4-3.1-1.5-5.5-.5-6.1,2.5-65.3,29-66.2,29.6a5.5,5.5,0,0,0-1.5,1.6,4.4,4.4,0,0,0,1.1,4.5c.9,1,1.2,1.1,2.7.9C71,158,84.1,152.4,104,143.5Zm31.9,12.4a3.63,3.63,0,0,0,.9-4.5c-.8-1.5-2-2.2-3.2-1.8a46.56,46.56,0,0,0-4.8,2.1l-4,1.8,2.4,1.2C132.2,157.3,134.2,157.6,135.9,155.9ZM98.8,131.8c35.8-16,37.5-16.7,38.3-17.9s.8-2.8-.2-4.4c-1.8-2.8-1.2-3-31.3,10.4-38.6,17.2-39,17.4-40.3,18.2a3.85,3.85,0,0,0-.7,6.3c.9.9,1.3,1,2.9.8C68.7,145.1,78.2,141,98.8,131.8Zm-21.6-4.3a15.51,15.51,0,0,0,3.3-1.9c.2-.3-.7-.8-8.2-4-5.2-2.3-7.1-2.5-8.5-1a4.51,4.51,0,0,0-1.1,2.3c-.3,2,.9,3.7,3.9,5.2C70.2,129.7,72.8,129.6,77.2,127.5Zm16.1-7.3a11.12,11.12,0,0,0,3.1-1.8c0-.1-5.9-2.8-13-5.9-8.6-3.8-13.4-5.7-14.3-5.7-1.8,0-3.2,1.4-3.5,3.6a2.52,2.52,0,0,0,.9,2.8,27.34,27.34,0,0,0,5.8,3.1,72.46,72.46,0,0,1,7.2,3.4c3.9,2.2,4.8,2.5,7.9,2.4A14.5,14.5,0,0,0,93.3,120.2Zm15.9-7.1,3.4-1.7-1.2-.5c-.6-.3-9.3-4.2-19.3-8.6S73.4,94.1,72.6,94a3.25,3.25,0,0,0-3.8,1.8c-1.3,2.5-.5,4.5,2.5,6,.8.4,4.6,2.1,8.3,3.7s9.6,4.3,13.1,5.9,6.8,3.2,7.4,3.4C102.5,115.4,105.7,114.8,109.2,113.1Zm8.4-21.7c-.1-18.2-.1-18-2.6-19a3.8,3.8,0,0,0-4.6.9l-1,1L109.3,88c-.1,14.7,0,16.3,1.7,17.4a32.58,32.58,0,0,0,6.1,2.6C117.6,107.9,117.7,104.8,117.6,91.4Zm16.2,10.8c.4-.6.5-14.3.1-22.4-.2-5.1-.4-5.9-1.1-6.8-1.3-1.5-4.2-1.4-5.7.1l-1.1,1-.1,15.2c-.1,8.3,0,15.4.1,15.6C126.1,105.5,133.3,103.1,133.8,102.2ZM100.3,74c-.9-2.3-4.5-2.7-6.4-.8-.9,1-.9,1.2-1,11-.1,6.3,0,10.6.3,11.7.5,1.8,1.4,2.5,4.9,3.8l2.5.9.1-12.7C100.8,78.8,100.7,74.9,100.3,74ZM84.2,83.7c-.1-9.2-.2-9.4-1-10.4a4.19,4.19,0,0,0-4.5-1c-2.1.8-2.4,1.9-2.4,9.8v7.1l1.2,1.1a20.47,20.47,0,0,0,6.6,2.9C84.2,93.1,84.3,88.8,84.2,83.7Z" transform="translate(0.05 -0.01)"/></g><path class="cls-1" d="M760.48,294.62a12.81,12.81,0,1,1-12.77-12.47A12.53,12.53,0,0,1,760.48,294.62Zm-22.42,0a9.65,9.65,0,0,0,9.73,9.95,9.54,9.54,0,0,0,9.5-9.88c0-5.55-4-10-9.58-10A9.69,9.69,0,0,0,738.06,294.62Zm7.68,6.53h-2.89V288.69a25,25,0,0,1,4.79-.38,7.81,7.81,0,0,1,4.33.91,3.46,3.46,0,0,1,1.21,2.74,3.2,3.2,0,0,1-2.58,2.89V295c1.21.45,1.9,1.37,2.28,3a9.18,9.18,0,0,0,.92,3.11h-3.12a10.52,10.52,0,0,1-1-3c-.23-1.36-1-2-2.59-2h-1.36Zm.07-7.07h1.37c1.6,0,2.89-.53,2.89-1.82,0-1.14-.84-1.9-2.66-1.9a7.33,7.33,0,0,0-1.6.15Z" transform="translate(0.05 -0.01)"/></svg>