<?xml version="1.0" encoding="utf-8"?>
<!-- Generator: Adobe Illustrator 24.1.0, SVG Export Plug-In . SVG Version: 6.00 Build 0)  -->
<svg version="1.1" id="Capa_1" xmlns="http://www.w3.org/2000/svg" xmlns:xlink="http://www.w3.org/1999/xlink" x="0px" y="0px"
	 viewBox="0 0 766.7 307.9" style="enable-background:new 0 0 766.7 307.9;" xml:space="preserve">
<style type="text/css">
	.st0{fill:#ffffff;}
	.st1{fill:#ffffff;}
</style>
<g id="layer101_1_">
	<path class="st0" d="M466.2,307c-4-1.7-5.9-5-6.2-10.9c-0.5-7.4,1.9-11.6,7.6-13.3c3.4-1,4.4-0.9,7.7,0.7c3.9,2,5.7,4.4,3.1,4.4
		c-0.8,0-2-0.7-2.7-1.5c-2-2.4-7.7-1.9-10.5,1c-3.3,3.2-3.5,11-0.4,14.9c2.4,3,8.2,3.6,11.5,1.1c2.3-1.7,3.4-1.9,3.4-0.5
		c0,1.6-6.2,5-9,4.9C469.3,307.8,467.3,307.4,466.2,307z"/>
	<path class="st0" d="M490.7,306.1c-5.8-2.9-7.7-13.5-3.5-19.9c2.2-3.3,8.3-4.8,12.9-3.3c9.3,3.1,10.4,18.9,1.6,23.5
		C497.9,308.4,495,308.3,490.7,306.1z M502.6,302.3c1.5-1.9,2.1-4.1,2.1-7.4c0-6.5-2.8-10-8-10c-2.2,0-4.7,0.8-6.1,1.9
		c-2.1,1.6-2.4,2.8-2.4,8.1s0.3,6.5,2.4,8.1C494.2,305.9,500,305.5,502.6,302.3z"/>
	<path class="st0" d="M519.1,306.5c-5.2-2.3-7.5-11.2-4.5-18.3c2.5-6.1,12.3-8.1,16.6-3.3c2.4,2.6,1.3,3.7-1.7,1.6
		c-2.6-1.8-7-2.1-9.8-0.6c-4.5,2.4-5,14.5-0.7,17.5c2.7,1.9,7.7,1.9,10.3,0c2.4-1.8,3.4-1.9,3.4-0.1c0,1.5-5.8,4.6-8.7,4.6
		C523,307.8,520.8,307.2,519.1,306.5z"/>
	<path class="st0" d="M540.3,307.2c-0.3-0.3-0.6-6-0.6-12.5c0-9.8,0.3-11.8,1.5-11.8c1.2,0,1.5,2,1.5,11.9
		C542.7,305.7,542.1,309,540.3,307.2z"/>
	<path class="st0" d="M559.6,298.4l-6.4-9.8l-0.3,9.2c-0.2,6.7-0.6,9.1-1.5,8.8c-1.5-0.5-2.2-20.9-0.9-23.4c0.8-1.3,2.2,0.2,7.3,8
		c3.5,5.3,6.6,9.7,6.9,9.7c0.3,0,0.5-3.9,0.5-8.7c0-4.9,0.4-9,1-9.3c1.3-0.6,1.9,23,0.7,24.2C566.3,307.7,563.4,304.2,559.6,298.4z"
		/>
	<path class="st0" d="M590.1,304c-1.6-4-1.7-4.1-6.5-4.1c-4.6,0-4.9,0.2-6.3,3.5c-1.5,3.4-3.6,4.8-3.6,2.3c0.2-3,8.7-22.3,9.9-22.3
		c1.9,0,10.6,22.4,9.2,23.8C592.1,307.9,591.3,306.9,590.1,304z M587.3,296.7c-0.2-0.7-1-3-1.7-5c-0.7-2.1-1.5-3.8-1.9-3.8
		c-0.3,0-1.2,1.7-1.9,3.8c-0.8,2-1.6,4.3-1.8,5c-0.4,0.8,0.7,1.2,3.7,1.2C586.6,297.9,587.7,297.5,587.3,296.7z"/>
	<path class="st0" d="M611.3,307.2c-0.3-0.3-0.6-6-0.6-12.5c0-9.8,0.3-11.8,1.5-11.8c1.2,0,1.5,2,1.5,11.9
		C613.7,305.7,613.1,309,611.3,307.2z"/>
	<path class="st0" d="M655,304.1c-1.8-4.1-1.9-4.2-6.8-4.2c-4.9,0-5.1,0.1-6.4,3.5c-1.2,3.4-3.1,4.8-3.1,2.2
		c0-2.1,8.7-23.2,9.6-23.2c1.5,0,10.5,23.8,9.4,24.9C657,308,656.1,306.9,655,304.1z M651.3,295.4c-0.3-1.3-1.1-3.7-1.7-5.2
		l-1.1-2.8l-1.9,4c-2.6,5.7-2.4,6.5,1.7,6.5C651.6,297.9,651.9,297.7,651.3,295.4z"/>
	<path class="st0" d="M710.1,304c-1.6-4-1.7-4.1-6.5-4.1c-4.6,0-4.9,0.2-6.3,3.5c-1.4,3.2-3.6,4.8-3.6,2.5c0-0.5,2.1-6.2,4.6-12.6
		c3.8-9.4,4.9-11.3,5.9-10.2c2.4,2.5,9.7,23,8.6,24.1C712.1,307.9,711.3,306.9,710.1,304z M707.3,296.7c-0.2-0.7-1-3-1.7-5
		c-0.7-2.1-1.6-3.8-2-3.8c-0.5,0-3.9,8.2-3.9,9.7c0,0.2,1.8,0.3,4.1,0.3C706.7,297.9,707.7,297.5,707.3,296.7z"/>
	<path class="st0" d="M743.3,307.1c-0.7-1.1,8.6-24.4,9.7-24.6c0.9-0.1,9.7,20.9,9.7,23.1c0,2.5-2,1.2-3.4-2.2
		c-1.4-3.3-1.7-3.5-6.5-3.5s-5,0.1-6.1,3.5C745.5,307.1,744.2,308.5,743.3,307.1z M756.6,296.7c0-0.7-0.9-3.1-1.9-5.3l-1.8-4
		l-1.1,2.8c-3.4,8.3-3.5,7.7,0.9,7.7C755.3,297.9,756.7,297.5,756.6,296.7z"/>
	<path class="st0" d="M627.7,295.9v-11h-4c-2.2,0-4-0.4-4-1s3.7-1,9-1c5.3,0,9,0.4,9,1s-1.8,1-4,1h-4v11c0,6.7-0.4,11-1,11
		C628.1,306.9,627.7,302.6,627.7,295.9z"/>
	<path class="st0" d="M664.7,294.8c0-9.2,0.3-12,1.3-11.7c0.8,0.3,1.3,3.7,1.5,11.1l0.3,10.7h4.9c2.8,0,5,0.5,5,1c0,0.6-2.8,1-6.5,1
		h-6.5V294.8z"/>
	<path class="st0" d="M684.7,294.9c0-9.3,0.3-12.1,1.3-11.7c0.9,0.3,1.2,3.5,1.2,11.7s-0.3,11.4-1.2,11.8
		C685,307,684.7,304.2,684.7,294.9z"/>
	<path class="st0" d="M719.7,295c0-6.6,0.4-12.2,0.8-12.5c0.4-0.3,3.7,3.9,7.3,9.2l6.4,9.7l0.3-9.2c0.4-13.7,2.2-11.5,2.2,2.7
		c0,7.1-0.4,12-1,12c-0.5,0-3.7-4-7-9c-3.3-4.9-6.2-9-6.4-9s-0.3,1.5-0.3,3.3c0.2,8-0.4,14.7-1.3,14.7
		C720.1,306.9,719.7,302.3,719.7,295z"/>
	<path class="st0" d="M236.6,276.4c-5.2-2.8-5.4-4.1-5.7-43.5c-0.3-32.1,0.7-76.2,2.4-100.5l0.5-8l-6.6,6.8
		c-3.7,3.8-6.8,6.7-6.9,6.5c-0.2-0.1-1.1-3.4-2-7.1c-0.9-3.7-2.5-9-3.5-11.7l-1.8-4.8l10.6-10.4c12.7-12.5,17.7-16.6,29.9-24.6
		c14.4-9.5,25-12.8,35.6-11.1c12.3,2,22.8,10.9,29.4,24.6c3.2,6.7,3.7,8.9,4,16.8c0.5,10.6-1.2,20.3-6.4,36.2
		c-9.3,28.7-24.8,51-41.1,58.9c-5.2,2.6-6.8,2.9-16.3,3h-10.5V233c-0.1,26.9-0.8,33.3-4.9,40.5C240.8,277.9,240,278.3,236.6,276.4z
		 M255.3,192.4c22.4-9.9,45.6-40.1,52.9-68.9c5.6-22.1,1.8-36.8-10.7-42.1c-4.9-2-9.7-1.9-15.6,0.3c-11.3,4.3-29.3,19.8-31.1,26.7
		c-1.2,5.1-3.1,45.1-3.1,66c0,14.3,0.5,20.5,1.6,20.5C249.5,194.9,252.2,193.8,255.3,192.4z"/>
	<path class="st0" d="M405.9,268.8c-6-3-9.4-9-9.5-17c0-6.3,1.9-10.3,2.9-6.1c0.4,1.2,1,1.9,1.5,1.6c0.5-0.3,0.9,1.3,0.9,3.5
		c0,5.1,1.5,9.1,3.5,9.1c2.6,0,10.7-8.3,13.1-13.5c2.9-6.2,3.1-12.8,0.5-15.4c-1.1-1.1-4.5-2.5-7.8-3.1
		c-22.2-4.5-32.2-24.7-22.4-45.2c8.4-17.6,27.7-32.2,44.2-33.6c7.2-0.5,12.7,1.2,14.2,4.5c1.3,2.9,2.1,2-15.5,16.4
		c-17.4,14.2-25.3,23.7-29.8,35.6c-3.4,9.1-1.8,11.2,11,14.7c14.2,3.9,24.5,16.5,22.5,27.5c-1.5,8.1-8.6,17.5-15.9,21
		C413.9,271.4,411.3,271.4,405.9,268.8z"/>
	<path class="st0" d="M463.7,263.8c-15.3-6.9-21.6-25.3-19-55.6c1.3-15.2,1-17.3-3.1-17.3c-2.9,0-2.3-1.7,2.1-6.7
		c2.2-2.5,4.4-6.2,4.9-8.2s1.7-14.4,2.6-27.6s2.3-27.8,3-32.5c0.8-4.6,1.1-8.8,0.6-9.3c-0.4-0.4-4.8,0.4-9.6,1.8
		c-9.2,2.6-10.4,2.4-10.5-1.6c0-0.9-0.3-3-0.6-4.6l-0.6-2.9l9.9-2.8c5.4-1.6,10.6-3.2,11.5-3.7c0.9-0.5,3.1-4.6,4.8-9.1
		c7.8-20.3,18.4-36.7,27.4-42.2c6-3.8,15.5-4.8,20.4-2.2c7.5,3.9,7.8,10.9,1.1,27.9c-2.3,5.9-4,10.9-3.8,11.1
		c0.2,0.3,5.6-0.8,12-2.4c15.9-3.9,29.3-5.4,40.8-4.7c12.8,0.8,19.6,2.9,24.3,7.7c5.5,5.5,5.1,9.8-1.3,13c-5.9,3.1-7,2.7-6.7-2.2
		l0.3-4.3l-9.5-0.9c-14-1.3-31.9,0.5-50.2,5l-15.1,3.8l-5.1,11c-2.8,6.1-11.8,24.6-20,41l-14.8,29.9l0.5,25.6
		c0.6,28.6,2.3,40.3,7.7,51.8c4.5,9.8,8.8,9.5,23.4-1.9c3.3-2.6,6.3-4.4,6.6-4.1c0.3,0.3,0,0.8-0.6,1c-0.7,0.2-1,1.3-0.7,2.3
		c0.3,1.1,0.1,2-0.5,2s-2.7,2.3-4.7,5c-2.1,2.8-5.5,6-7.6,7C478.5,266.6,469.7,266.5,463.7,263.8z M494.8,250.2
		c1.3-1.6,1.2-1.7-0.3-0.4c-1.7,1.3-2.2,2.1-1.4,2.1C493.3,251.9,494.1,251.1,494.8,250.2z M470.8,136.2c9.6-20,18.1-39.4,17.6-39.9
		c-1-1.1-11.3,2.1-13.2,4c-4.1,4.1-7.8,18.5-13,49.9c-0.2,1.5-0.2,2.7,0.1,2.7S466.4,145.4,470.8,136.2z M487.3,84.3
		c7.8-2.7,7.6-2.4,14.5-21.9c3.8-10.7,4.9-17.5,2.9-17.5c-2.2,0-8,6.5-11.3,12.7c-3.5,6.7-12.7,26.9-12.7,27.8
		C480.7,86.2,482.1,86,487.3,84.3z"/>
	<path class="st0" d="M572,264.9c-4.5-1.8-5.5-6.2-6.4-26.5c-0.5-10.4-1.3-26.9-1.8-36.5c-1.4-24.9,0-30.9,7.7-34.6
		c4.2-2,12.7-3.1,13.4-1.8c0.5,0.9-0.5,17.5-2,34.2c-0.4,5.1-0.5,9.5-0.1,9.8c0.4,0.2,1.9-3.2,3.4-7.6c5.5-16.4,18.4-30,28.5-30
		c5.6,0,13.6,5.3,15.2,10.1c0.2,0.7,2.3,0,5.9-2c19.1-10.7,39.6,7.8,30.3,27.4c-4.1,8.8-13.3,15.3-33.4,23.4
		c-4.2,1.7-9.3,4.5-11.4,6.3c-3.6,2.9-3.8,3.4-3.3,7.5c0.9,8.1,8,12.4,17.1,10.3c11.1-2.5,18.6-6.8,35.8-20.7
		c10.4-8.4,11.8-9.9,12.3-13.1c4.9-31.3,29.7-61.6,50.6-61.7c8.2,0,9.9,1.8,10.2,11l0.2,7l-3.2,0.3c-2.7,0.3-3.3-0.1-3.8-2.1
		c-0.6-2.3-0.7-2.2-5.7,2.2c-15,13.7-29.8,41.8-29.8,56.8c0,2.4,0.4,4.3,0.9,4.3c1.3,0,7.4-8.6,22-31.4c14.7-22.6,23.7-34,27.2-34.2
		c1.3-0.1,3.1-0.5,3.9-0.8c0.9-0.4,3.3,1,6.3,3.5c4.2,3.6,4.7,4.5,4.7,8.2c0,2.3-1.3,7.6-3,11.8c-3.7,9.7-5.3,22.5-3.9,32.9
		c2.1,16.4,2.3,20.4,0.9,19.5c-1-0.6-1.2-0.4-0.7,0.8c1,2.6-1.4,3.6-5.3,2.3c-3-0.9-4.1-2.2-7.2-8.6c-4.9-9.7-6.2-18.6-5.4-35
		c0.3-6.9,0.8-13.8,1.2-15.5c0.9-4.4-10.9,12.8-20.3,29.5c-12.7,22.6-12.7,22.6-18.8,24c-6.7,1.5-14.7-2.5-18.1-9.1l-1.4-2.9
		l-5.9,6.8c-11.9,13.9-20.3,20-31.1,22.8c-13,3.3-26.4,0-35-8.6c-14.2-14.2-12-35.5,6-58.6l4.8-6.1l-4.4-5.7
		c-5.3-6.7-6-6.6-12.9,2.2c-9.4,11.9-16,29.4-18.9,49.9c-3.4,23.9-3.9,26.5-5.3,27.9C580.4,266,575.4,266.3,572,264.9z M630.7,220.6
		c16.6-11,23.8-16.6,26-20.1c2.1-3.5,2.7-9.1,1-10.1c-2-1.3-35.7,30.3-39,36.5C617.3,229.6,616.5,230,630.7,220.6z"/>
	<path class="st0" d="M368,250.1c-5.6-0.9-11.5-12.3-13.4-26.1c-1.2-8.1-0.6-27.3,1-32.9c0.5-1.8,0.6-3,0.2-2.7
		c-1.9,1.1-15.4,22.2-23.1,35.9c-9.6,17.1-12,19.6-19.1,19.6c-12,0-18.7-9.5-17.6-24.9c1.1-15.6,9.9-33.2,23.8-47.3
		c10.1-10.4,17.1-14.2,26-14.3c7.3,0,9.1,1.6,10.7,9.5c1.5,7.1,0.7,9-3.9,9c-2.2,0-2.9-0.5-2.9-2c0-1.1-0.4-2-0.8-2
		c-1.3,0-15.5,15.1-18.9,20c-5.1,7.6-11,19.2-13.2,26.1c-2.3,7.1-3.2,17.1-1.7,17.9c1.2,0.6,7.1-7.7,21.7-30.1
		c13.9-21.6,23-33.4,26.7-34.7c5.9-2,14.3,3.3,15.7,9.9c0.4,1.7-0.5,5.4-2.4,10.6c-1.7,4.3-3.5,10.2-4.1,13.2
		c-1.4,7.3-1.2,23.3,0.3,30.6c0.7,3.3,1.2,6.6,1.1,7.3c-0.1,0.6-0.2,1.9-0.3,2.8c0,0.8-0.5,1.2-1.1,0.9c-0.5-0.3-0.7,0-0.4,0.8
		C373,249,370.7,250.6,368,250.1z"/>
	<path class="st0" d="M545.7,249c-3.2-0.9-8.1-8.1-10.6-15.7c-1.5-4.8-1.9-8.8-1.9-21.4c0-8.5,0.3-17.7,0.8-20.5l0.7-4.9l-6.6,9.4
		c-3.6,5.2-10.8,17-16,26.2c-11.6,20.4-14.7,23.1-23.6,20.8c-6.5-1.8-12.3-8.3-13.8-15.6c-2.3-11.2,3.4-29.7,14.1-45.5
		c10.2-15.3,24.5-25.3,36-25.4c8.2,0,9.9,1.8,10.2,11l0.2,7l-3.1,0.3c-2.4,0.2-3.3-0.2-4.1-2c-1-2.2-1.2-2.1-7.5,4.2
		c-10.7,10.8-20.8,27-25.3,40.5c-2.1,6.3-3.2,18.5-1.7,18.5c1.3,0,7-8.1,22.4-31.9c12.4-19.1,22.4-32.3,26-34.2
		c5.3-2.9,15.8,4.8,15.8,11.4c0,1.8-1.3,7-3,11.4c-3.9,10.9-5.3,22.7-4,33.5c2.3,17.7,2.4,19.7,0.5,21.8c-1,1.1-2.1,2-2.4,1.9
		C548.5,249.7,547.1,249.4,545.7,249z"/>
	<path class="st0" d="M340.2,146.4c-4.3-1.5-7.4-4.9-7.5-8c0-1.1,0.9-3.5,2.1-5.4c1.1-1.8,2.6-5.8,3.4-9c1.9-7.5,6.3-38,8-56.1
		c1.7-16.8,1.9-53.5,0.4-59.9c-0.8-3.6-0.7-4.7,0.7-6.2c2.2-2.4,6.1-2.4,10.1,0.1c5.4,3.2,6.6,6.1,5.9,13.3
		c-0.3,3.4-1,19.5-1.5,35.7c-1.1,35-2.9,47.7-10.7,74.9c-0.6,1.9-0.4,2.3,0.7,1.9c9.1-3.5,38.3-4.5,46.9-1.5l4.5,1.5l-4.5,0.2
		l-4.5,0.3l4,0.7c3.8,0.7,3.7,0.7-2,0.9c-4.3,0.1-5.6,0.4-4.5,1.1c1.2,0.7,0.8,1-1.5,1c-1.6,0-4.7,0.6-7,1.4
		c-5.1,1.8-18.7,6-24.1,7.5c-2.2,0.6-6.1,2.4-8.5,4.1C345.6,148.3,345.6,148.3,340.2,146.4z"/>
	<path class="st0" d="M422.8,117.5c-5.6-6-8.8-25.8-6.3-39.3c0.5-2.9,0.8-5.3,0.7-5.3c-0.9,0-10.3,14.3-16.4,25.1
		c-8.5,15-10.7,17.4-16.1,17.4c-4.6,0-8.6-2.7-11.5-7.6c-7.8-13.2,8.1-46.6,26.7-55.8c10-5,15.9-4,17.8,3c0.9,3.3,0.8,4.5-0.5,6.5
		c-1.9,3-4.1,3.1-4.9,0.2c-0.5-2.2-0.8-2.1-5.2,2.2c-5.9,5.7-15.8,20.7-18.5,27.9c-3,8.2-4.4,16-3.1,17.3c0.8,0.8,4.5-4.1,13.5-17.8
		c12.2-18.5,19.6-28.8,22.3-31c2.1-1.7,9.5,0,11.6,2.6c2.4,3,2.3,6-0.8,15.5c-2.1,6.4-2.7,9.9-2.7,17.5c0,5.2,0.5,11.3,1,13.5
		c1.3,5.6-0.1,10.5-3.1,10.5C426.1,119.9,424.1,118.8,422.8,117.5z"/>
</g>
<g>
	<g id="layer101_2_">
		<path class="st1" d="M64.4,280.8c-1.9-0.8-3.5-2.7-4.2-5c-1-3,0.4-8,3.8-13.9c1.5-2.6,2.1-4,1.8-4.4c-0.2-0.3-1.7-1.2-3.5-1.9
			c-21.1-9-40.5-27.4-51.1-48.5c-16.8-33.7-14.7-74.4,5.7-105.6C33,76.7,59.2,59.6,87.5,55.1c6.6-1,20.3-1.2,26.9-0.4
			c12.7,1.6,23.5,5,34.8,10.9c28.7,14.9,48.6,42.2,54.6,74.3c3.9,21,1.3,42.2-7.4,61.7c-6.1,13.6-13.2,24-23,33.6
			c-13.2,13.1-28.6,21.3-48.8,26.2c-5.5,1.3-7,1.4-7.6,0.1c-0.1-0.4-0.4-10.3-0.5-22c-0.2-18.8-0.1-21.6,0.4-24.1
			c0.9-3.9,2.7-7.3,5.4-10.4c2.9-3.3,3.1-3.9,2.3-5.3c-1.7-2.7-15.5-10.3-28.3-15.8c-15.1-6.4-18.8-7.8-19.5-7.4
			c-0.8,0.7-1,2.9-0.6,7.1c0.5,4.8,1.3,7.6,3.3,11.6c1.4,2.7,2.6,4.1,7.6,9c5.3,5.3,6,6.2,7.5,9.3c3.1,6.3,3.1,5.7,2.9,28.5
			c-0.1,23.1,0,21.9-3.3,21.5c-8.1-1.1-10.6-1-12.3,0.7c-1.4,1.3-3.8,5.6-5.1,9.2c-0.6,1.6-1.6,3.8-2.3,4.7
			C72.5,281.3,68,282.4,64.4,280.8z M70,276.2c0.4-0.3,1.3-2.1,2-4.1c3.1-8,7-12.9,15.8-20.4c4.1-3.4,5.1-5.3,5.1-9.3
			c0-1.5-0.1-2.9-0.2-3c-0.5-0.4-8.8,6.3-13.6,11.1c-2.6,2.5-5.5,5.8-6.6,7.2c-3.9,5.2-7.8,13-7.8,15.7C64.6,276,68,277.7,70,276.2z
			 M125.3,233.6c6.2-4.5,10.2-9,12.7-14.1c2-4.1,2.7-7.7,2.5-12.3c-0.1-3.4-0.3-4.2-1.6-7c-1.2-2.6-2.2-3.9-5-6.7
			c-5.5-5.5-12-9.6-25.8-16.5c-12.3-6.1-14.2-6.9-17.4-7.2c-2.4-0.2-3,0-5.3,1c-3.4,1.6-3.4,2.2,0,3.3c3.6,1.2,14.5,5.9,21.7,9.4
			c18.9,9.3,26.5,15.8,27,23.5c0.4,5.8-1.6,10.4-6.7,15.8c-1.8,1.9-3.9,3.9-4.7,4.3c-1.7,1-2.4,2.6-2.3,4.9
			C120.5,236.2,121.4,236.4,125.3,233.6z M134,185.6c0.5-2,0.2-22.7-0.3-23.3c-0.2-0.2-1.8-0.8-3.5-1.3c-1.6-0.5-3.3-1-3.7-1.1
			c-0.7-0.2-0.7,0.3-0.7,6.4c0,7.8,0.2,7.5-4.4,7.5c-4,0-4,0-3.8-8c0.1-3.5,0.1-6.8,0-7.4c-0.2-1-0.4-1.1-1.6-0.8
			c-0.7,0.1-2.3,0.7-3.4,1.2c-2.9,1.3-3.3,2.4-3.2,8.5l0.1,4.7l1.3,0.8c0.7,0.4,3.5,2,6.1,3.4c2.7,1.4,7.4,4.3,10.6,6.5
			c3.2,2.1,5.9,3.9,6,3.9C133.6,186.7,133.8,186.2,134,185.6z M104.2,157.4c35.8-16,37.2-16.6,38.3-17.8c2.3-2.5-0.5-7.1-3.8-6.2
			c-1,0.2-54.4,23.9-64.9,28.7c-3.8,1.7-4.9,2.9-4.8,5.1c0.1,2.3,2,3.9,4.3,3.6C74,170.8,87.9,164.7,104.2,157.4z M104,143.5
			c17.8-7.9,33-14.7,33.8-15.1c2.8-1.4,3.5-4.5,1.6-6.4c-1.4-1.4-3.1-1.5-5.5-0.5c-6.1,2.5-65.3,29-66.2,29.6
			c-0.6,0.4-1.3,1.2-1.5,1.6c-0.6,1.2-0.1,3.3,1.1,4.5c0.9,1,1.2,1.1,2.7,0.9C71,158,84.1,152.4,104,143.5z M135.9,155.9
			c1.4-1.4,1.7-3,0.9-4.5c-0.8-1.5-2-2.2-3.2-1.8c-0.5,0.1-2.7,1.1-4.8,2.1l-4,1.8l2.4,1.2C132.2,157.3,134.2,157.6,135.9,155.9z
			 M98.8,131.8c35.8-16,37.5-16.7,38.3-17.9c0.9-1.3,0.8-2.8-0.2-4.4c-1.8-2.8-1.2-3-31.3,10.4c-38.6,17.2-39,17.4-40.3,18.2
			c-2.4,1.5-2.7,4.3-0.7,6.3c0.9,0.9,1.3,1,2.9,0.8C68.7,145.1,78.2,141,98.8,131.8z M77.2,127.5c1.7-0.8,3.2-1.7,3.3-1.9
			c0.2-0.3-0.7-0.8-8.2-4c-5.2-2.3-7.1-2.5-8.5-1c-0.5,0.5-1,1.5-1.1,2.3c-0.3,2,0.9,3.7,3.9,5.2C70.2,129.7,72.8,129.6,77.2,127.5z
			 M93.3,120.2c1.7-0.8,3.1-1.6,3.1-1.8c0-0.1-5.9-2.8-13-5.9c-8.6-3.8-13.4-5.7-14.3-5.7c-1.8,0-3.2,1.4-3.5,3.6
			c-0.2,1.4-0.1,1.8,0.9,2.8c0.6,0.6,3.2,2,5.8,3.1c2.5,1,5.8,2.6,7.2,3.4c3.9,2.2,4.8,2.5,7.9,2.4
			C89.8,121.8,90.7,121.5,93.3,120.2z M109.2,113.1l3.4-1.7l-1.2-0.5c-0.6-0.3-9.3-4.2-19.3-8.6c-9.9-4.5-18.7-8.2-19.5-8.3
			c-1.8-0.3-3,0.3-3.8,1.8c-1.3,2.5-0.5,4.5,2.5,6c0.8,0.4,4.6,2.1,8.3,3.7c3.8,1.6,9.6,4.3,13.1,5.9c3.4,1.7,6.8,3.2,7.4,3.4
			C102.5,115.4,105.7,114.8,109.2,113.1z M117.6,91.4c-0.1-18.2-0.1-18-2.6-19c-1.8-0.8-3.3-0.4-4.6,0.9l-1,1L109.3,88
			c-0.1,14.7,0,16.3,1.7,17.4c1.2,0.8,5.4,2.5,6.1,2.6C117.6,107.9,117.7,104.8,117.6,91.4z M133.8,102.2c0.4-0.6,0.5-14.3,0.1-22.4
			c-0.2-5.1-0.4-5.9-1.1-6.8c-1.3-1.5-4.2-1.4-5.7,0.1l-1.1,1l-0.1,15.2c-0.1,8.3,0,15.4,0.1,15.6
			C126.1,105.5,133.3,103.1,133.8,102.2z M100.3,74c-0.9-2.3-4.5-2.7-6.4-0.8c-0.9,1-0.9,1.2-1,11c-0.1,6.3,0,10.6,0.3,11.7
			c0.5,1.8,1.4,2.5,4.9,3.8l2.5,0.9l0.1-12.7C100.8,78.8,100.7,74.9,100.3,74z M84.2,83.7c-0.1-9.2-0.2-9.4-1-10.4
			c-1.2-1.2-2.9-1.6-4.5-1c-2.1,0.8-2.4,1.9-2.4,9.8v7.1l1.2,1.1c1,0.9,5.3,2.8,6.6,2.9C84.2,93.1,84.3,88.8,84.2,83.7z"/>
	</g>
</g>
</svg>
